<svg width="108" height="25" viewBox="0 0 108 25" fill="none" xmlns="http://www.w3.org/2000/svg">
<path d="M12.4252 24.8504C19.2874 24.8504 24.8504 19.2875 24.8504 12.4252C24.8504 5.56295 19.2874 0 12.4252 0C5.56295 0 0 5.56295 0 12.4252C0 19.2875 5.56295 24.8504 12.4252 24.8504Z" fill="#02AFD9"/>
<path fill-rule="evenodd" clip-rule="evenodd" d="M5.2441 15.2126C5.38583 17.2441 6.66142 18.8032 9.02363 18.9449C11.2913 19.0394 13.5118 19.0394 15.7795 18.9449C17.8583 18.8032 19.4173 17.2441 19.5591 15.2126C19.6536 14.1732 19.7008 13.1339 19.6536 12.0945C19.1339 9.25983 16.7717 9.16535 16.5827 9.16535H16.5354H8.59843C8.31497 9.16535 8.07875 8.92913 8.07875 8.64566C8.07875 8.3622 8.31497 8.17322 8.59843 8.17322H16.5827C16.4882 6.28345 14.4095 5.9055 13.4173 5.85826H12.8976C11.6221 5.81101 10.2992 5.85826 9.02363 5.95274C6.61418 6.14172 5.38583 7.60629 5.2441 9.68503C5.10237 11.5276 5.10237 13.3701 5.2441 15.2126ZM17.1969 14.126V14.8346C17.1969 15.0709 17.0079 15.2598 16.7244 15.2598C16.4882 15.2598 16.2992 15.0709 16.2992 14.8346V14.126C16.063 13.9842 15.9213 13.7953 15.9213 13.5118C15.9213 13.1339 16.2992 12.8031 16.7244 12.8031C17.1496 12.8031 17.5276 13.1339 17.5276 13.5118C17.5276 13.7953 17.3858 13.9842 17.1969 14.126Z" fill="#FEFEFE"/>
<path fill-rule="evenodd" clip-rule="evenodd" d="M87.4961 11.2914V13.5591C87.4961 13.5591 86.6929 15.0709 84.0472 15.4016C81.4016 15.7796 81.4016 14.126 81.5906 13.7008C81.7795 13.2756 82.3937 12.7087 84.6142 12.3307C86.9291 11.9528 87.4961 11.2914 87.4961 11.2914ZM90.6142 9.11813V17.9055H87.7323V16.4882C86.7874 17.3386 85.4646 18.1418 83.6221 18.2362C77.8583 18.378 75.6378 12 82.6299 10.1103C84.2835 9.63781 85.8898 9.77954 86.7402 9.35435C87.3071 9.02364 87.4488 8.50395 87.0709 8.03151C85.6535 6.14175 82.252 6.89765 81.3071 9.49608L78.4252 8.78742C79.1811 5.90553 81.4961 4.62993 84.2835 4.34647C87.2598 4.063 90.6142 5.6693 90.6142 9.11813ZM36.0472 7.55907C33.9685 7.55907 32.2677 9.25986 32.2677 11.3858C32.2677 13.4646 33.9685 15.1654 36.0472 15.1654C38.126 15.1654 39.8268 13.4646 39.8268 11.3858C39.8268 9.25986 38.126 7.55907 36.0472 7.55907ZM43.5118 4.77167H39.8268V6.18899C38.6929 5.19686 37.1811 4.58269 35.4803 4.58269C31.7953 4.58269 28.7717 7.65356 28.7717 11.4331C28.7717 15.2599 31.7953 18.3307 35.4803 18.3307C37.1811 18.3307 38.6929 17.7166 39.8268 16.7244V18C39.8268 20.0315 38.3622 21.6378 36.3307 21.6378C34.6299 21.6378 33.2598 21.3071 32.126 19.9843L29.7638 22.1103C31.7008 24.189 33.6378 24.8504 36.378 24.8504C40.3465 24.8504 43.5118 22.1575 43.5118 17.6221V15.6378V4.77167ZM107.717 4.53545H103.843L99.9685 12.9921L95.5276 4.53545H91.6063L98.0315 16.5827L94.6299 23.5748H98.5512L107.717 4.53545ZM69.5906 7.55907C71.7165 7.55907 73.4173 9.25986 73.4173 11.3858C73.4173 13.4646 71.7165 15.1654 69.5906 15.1654C67.5118 15.1654 65.811 13.4646 65.811 11.3858C65.811 9.25986 67.5118 7.55907 69.5906 7.55907ZM62.1732 4.77167H65.811V6.18899C66.9921 5.19686 68.5039 4.58269 70.1575 4.58269C73.8425 4.58269 76.8661 7.65356 76.8661 11.4331C76.8661 15.2599 73.8425 18.3307 70.1575 18.3307C68.5039 18.3307 66.9921 17.7166 65.811 16.7244V23.5748H62.1732V4.77167ZM52.4409 7.46458C54.7559 7.46458 56.5984 9.25986 56.5984 11.4331C56.5984 13.6536 54.7559 15.4488 52.4409 15.4488C50.1732 15.4488 48.3307 13.6536 48.3307 11.4331C48.3307 9.25986 50.1732 7.46458 52.4409 7.46458ZM52.4409 4.29922C56.5039 4.29922 59.811 7.51183 59.811 11.4331C59.811 15.4016 56.5039 18.6142 52.4409 18.6142C48.378 18.6142 45.0709 15.4016 45.0709 11.4331C45.0709 7.51183 48.378 4.29922 52.4409 4.29922Z" fill="#1D1819"/>
</svg>
